<svg xmlns="http://www.w3.org/2000/svg" viewBox="0 0 800 420">
  <defs>
    <linearGradient id="g" x1="0" y1="0" x2="1" y2="1">
      <stop stop-color="#05070b"/>
      <stop offset="1" stop-color="#0f1b2b"/>
    </linearGradient>
    <linearGradient id="a" x1="0" y1="0" x2="1" y2="1">
      <stop stop-color="#6ef3b6"/>
      <stop offset="1" stop-color="#67e8f9"/>
    </linearGradient>
  </defs>
  <rect width="800" height="420" rx="34" fill="url(#g)"/>
  <rect x="88" y="98" width="210" height="224" rx="24" fill="#0e141f" stroke="#334155"/>
  <rect x="502" y="98" width="210" height="224" rx="24" fill="#0e141f" stroke="#334155"/>
  <rect x="342" y="142" width="116" height="136" rx="24" fill="#05070b" stroke="url(#a)" stroke-width="4"/>
  <path d="M298 210h44M458 210h44" stroke="url(#a)" stroke-width="8" stroke-linecap="round"/>
  <path d="m322 186 24 24-24 24M478 186l-24 24 24 24" fill="none" stroke="url(#a)" stroke-width="8" stroke-linecap="round" stroke-linejoin="round"/>
  <path d="M140 156h94M140 194h110M140 232h76M554 156h94M554 194h110M554 232h76" stroke="#7487a3" stroke-width="12" stroke-linecap="round"/>
  <path d="M374 184h52M374 212h52M374 240h52" stroke="#6ef3b6" stroke-width="10" stroke-linecap="round"/>
  <circle cx="400" cy="106" r="16" fill="#67e8f9"/>
  <circle cx="400" cy="314" r="16" fill="#6ef3b6"/>
</svg>
