<svg xmlns="http://www.w3.org/2000/svg" viewBox="0 0 800 420">
  <defs>
    <linearGradient id="g" x1="0" y1="0" x2="1" y2="1">
      <stop stop-color="#08101a"/>
      <stop offset="1" stop-color="#05070b"/>
    </linearGradient>
    <linearGradient id="a" x1="0" y1="0" x2="1" y2="1">
      <stop stop-color="#6ef3b6"/>
      <stop offset="1" stop-color="#67e8f9"/>
    </linearGradient>
  </defs>
  <rect width="800" height="420" rx="34" fill="url(#g)"/>
  <rect x="118" y="82" width="370" height="220" rx="28" fill="#0e141f" stroke="#334155"/>
  <rect x="150" y="120" width="306" height="92" rx="18" fill="#05070b" stroke="#26384f"/>
  <path d="M184 154h92M184 184h148M366 154h56M366 184h56" stroke="url(#a)" stroke-width="12" stroke-linecap="round"/>
  <rect x="164" y="238" width="54" height="36" rx="12" fill="#102119" stroke="#6ef3b6" stroke-opacity=".42"/>
  <rect x="242" y="238" width="54" height="36" rx="12" fill="#102119" stroke="#6ef3b6" stroke-opacity=".42"/>
  <rect x="320" y="238" width="54" height="36" rx="12" fill="#102119" stroke="#6ef3b6" stroke-opacity=".42"/>
  <rect x="398" y="238" width="54" height="36" rx="12" fill="#102119" stroke="#6ef3b6" stroke-opacity=".42"/>
  <rect x="522" y="132" width="162" height="170" rx="22" fill="#0e141f" stroke="#67e8f9" stroke-opacity=".45"/>
  <path d="M552 174h102M552 206h74M552 238h116" stroke="#7487a3" stroke-width="12" stroke-linecap="round"/>
  <path d="M150 326h450" stroke="#7fffd4" stroke-opacity=".18" stroke-width="8" stroke-linecap="round"/>
  <circle cx="632" cy="326" r="28" fill="url(#a)"/>
</svg>
