<svg xmlns="http://www.w3.org/2000/svg" width="800" height="420" viewBox="0 0 800 420" role="img" aria-labelledby="title desc">
  <title id="title">Ilustração de app de controle financeiro</title>
  <desc id="desc">Interface com saldo, cartões, gráfico e lançamentos financeiros.</desc>
  <defs>
    <linearGradient id="bg" x1="0" y1="0" x2="1" y2="1">
      <stop offset="0" stop-color="#07111d"/>
      <stop offset="1" stop-color="#10231d"/>
    </linearGradient>
    <linearGradient id="accent" x1="0" y1="0" x2="1" y2="1">
      <stop offset="0" stop-color="#6ef3b6"/>
      <stop offset="1" stop-color="#67e8f9"/>
    </linearGradient>
  </defs>
  <rect width="800" height="420" rx="34" fill="url(#bg)"/>
  <g opacity=".28">
    <path d="M0 84h800M0 168h800M0 252h800M0 336h800M160 0v420M320 0v420M480 0v420M640 0v420" stroke="#6ef3b6" stroke-width="1"/>
  </g>
  <rect x="84" y="70" width="292" height="280" rx="28" fill="#0e1420" stroke="#7fffd433"/>
  <circle cx="126" cy="112" r="20" fill="url(#accent)"/>
  <rect x="160" y="101" width="118" height="10" rx="5" fill="#edf7ff"/>
  <rect x="160" y="120" width="76" height="8" rx="4" fill="#9fb0c7"/>
  <text x="116" y="188" fill="#edf7ff" font-family="Inter, Arial, sans-serif" font-size="44" font-weight="800">R$ 9.428</text>
  <text x="116" y="218" fill="#9fb0c7" font-family="Inter, Arial, sans-serif" font-size="18" font-weight="600">saldo disponível</text>
  <rect x="116" y="252" width="92" height="54" rx="16" fill="#10241e" stroke="#6ef3b64d"/>
  <text x="134" y="280" fill="#6ef3b6" font-family="Inter, Arial, sans-serif" font-size="18" font-weight="800">+32%</text>
  <text x="134" y="296" fill="#9fb0c7" font-family="Inter, Arial, sans-serif" font-size="11">receitas</text>
  <rect x="224" y="252" width="92" height="54" rx="16" fill="#231218" stroke="#ff6b8b4d"/>
  <text x="242" y="280" fill="#ff6b8b" font-family="Inter, Arial, sans-serif" font-size="18" font-weight="800">-18%</text>
  <text x="242" y="296" fill="#9fb0c7" font-family="Inter, Arial, sans-serif" font-size="11">despesas</text>
  <rect x="424" y="70" width="292" height="122" rx="28" fill="#0e1420" stroke="#7fffd433"/>
  <text x="456" y="112" fill="#edf7ff" font-family="Inter, Arial, sans-serif" font-size="22" font-weight="800">Faturas</text>
  <text x="456" y="145" fill="#9fb0c7" font-family="Inter, Arial, sans-serif" font-size="15">Cartão, vencimento e limite</text>
  <rect x="600" y="106" width="72" height="46" rx="14" fill="url(#accent)" opacity=".95"/>
  <path d="M616 129h40M624 118h24M624 140h16" stroke="#07111d" stroke-width="5" stroke-linecap="round"/>
  <rect x="424" y="218" width="292" height="132" rx="28" fill="#0e1420" stroke="#7fffd433"/>
  <text x="456" y="260" fill="#edf7ff" font-family="Inter, Arial, sans-serif" font-size="22" font-weight="800">Análises</text>
  <path d="M456 312c26-44 58-48 91-24 36 26 72 24 116-38" fill="none" stroke="url(#accent)" stroke-width="10" stroke-linecap="round"/>
  <circle cx="456" cy="312" r="7" fill="#6ef3b6"/>
  <circle cx="547" cy="288" r="7" fill="#6ef3b6"/>
  <circle cx="663" cy="250" r="7" fill="#67e8f9"/>
</svg>
