<svg xmlns="http://www.w3.org/2000/svg" viewBox="0 0 800 420">
  <defs>
    <linearGradient id="g" x1="0" y1="0" x2="1" y2="1">
      <stop stop-color="#101827"/>
      <stop offset="1" stop-color="#061017"/>
    </linearGradient>
    <linearGradient id="a" x1="0" y1="0" x2="1" y2="1">
      <stop stop-color="#6ef3b6"/>
      <stop offset="1" stop-color="#67e8f9"/>
    </linearGradient>
  </defs>
  <rect width="800" height="420" rx="34" fill="url(#g)"/>
  <path d="M0 110h800M0 210h800M0 310h800M140 0v420M320 0v420M500 0v420M680 0v420" stroke="#7fffd4" stroke-opacity=".06"/>
  <rect x="82" y="88" width="245" height="210" rx="22" fill="#05070b" stroke="#334155"/>
  <rect x="112" y="122" width="145" height="18" rx="9" fill="#7487a3"/>
  <rect x="112" y="165" width="178" height="12" rx="6" fill="#26384f"/>
  <rect x="112" y="194" width="132" height="12" rx="6" fill="#26384f"/>
  <rect x="112" y="223" width="164" height="12" rx="6" fill="#26384f"/>
  <path d="M352 193h92" stroke="url(#a)" stroke-width="8" stroke-linecap="round"/>
  <path d="m426 164 34 29-34 29" fill="none" stroke="url(#a)" stroke-width="8" stroke-linecap="round" stroke-linejoin="round"/>
  <rect x="482" y="88" width="236" height="210" rx="22" fill="#0e141f" stroke="#6ef3b6" stroke-opacity=".45"/>
  <circle cx="528" cy="134" r="10" fill="#6ef3b6"/>
  <circle cx="564" cy="134" r="10" fill="#67e8f9"/>
  <circle cx="600" cy="134" r="10" fill="#7aa2ff"/>
  <rect x="528" y="172" width="136" height="14" rx="7" fill="#edf7ff" fill-opacity=".82"/>
  <rect x="528" y="207" width="154" height="12" rx="6" fill="#67e8f9" fill-opacity=".35"/>
  <rect x="528" y="237" width="112" height="12" rx="6" fill="#6ef3b6" fill-opacity=".35"/>
</svg>
