<svg xmlns="http://www.w3.org/2000/svg" viewBox="0 0 800 420">
  <defs>
    <linearGradient id="g" x1="0" y1="0" x2="1" y2="1">
      <stop stop-color="#080d14"/>
      <stop offset="1" stop-color="#05070b"/>
    </linearGradient>
    <linearGradient id="a" x1="0" y1="0" x2="1" y2="1">
      <stop stop-color="#67e8f9"/>
      <stop offset="1" stop-color="#6ef3b6"/>
    </linearGradient>
  </defs>
  <rect width="800" height="420" rx="34" fill="url(#g)"/>
  <rect x="88" y="74" width="624" height="272" rx="28" fill="#0e141f" stroke="#334155"/>
  <rect x="118" y="112" width="214" height="154" rx="20" fill="#05070b" stroke="#26384f"/>
  <rect x="360" y="112" width="322" height="44" rx="14" fill="#05070b" stroke="#26384f"/>
  <rect x="360" y="180" width="148" height="86" rx="18" fill="#05070b" stroke="#26384f"/>
  <rect x="534" y="180" width="148" height="86" rx="18" fill="#05070b" stroke="#26384f"/>
  <circle cx="225" cy="188" r="20" fill="url(#a)"/>
  <ellipse cx="225" cy="188" rx="84" ry="28" fill="none" stroke="#67e8f9" stroke-width="5"/>
  <ellipse cx="225" cy="188" rx="84" ry="28" fill="none" stroke="#6ef3b6" stroke-width="5" transform="rotate(60 225 188)"/>
  <ellipse cx="225" cy="188" rx="84" ry="28" fill="none" stroke="#7aa2ff" stroke-width="5" transform="rotate(120 225 188)"/>
  <path d="M388 134h244M388 217h82M562 217h82M388 238h54M562 238h54" stroke="url(#a)" stroke-width="10" stroke-linecap="round"/>
  <path d="M134 304h532" stroke="#7fffd4" stroke-opacity=".18" stroke-width="2"/>
</svg>
